<svg fill="none" height="22" viewBox="0 0 22 22" width="22" xmlns="http://www.w3.org/2000/svg"><g stroke="#121212" stroke-width="1.5"><path d="m4.58333 9.16666c-1.00833 0-1.83333.825-1.83333 1.83334 0 1.0083.825 1.8333 1.83333 1.8333 1.00834 0 1.83334-.825 1.83334-1.8333 0-1.00834-.825-1.83334-1.83334-1.83334z"/><path d="m17.4166 9.16666c-1.0083 0-1.8333.825-1.8333 1.83334 0 1.0083.825 1.8333 1.8333 1.8333 1.0084 0 1.8334-.825 1.8334-1.8333 0-1.00834-.825-1.83334-1.8334-1.83334z"/><path d="m11 9.16666c-1.00831 0-1.83331.825-1.83331 1.83334 0 1.0083.825 1.8333 1.83331 1.8333 1.0084 0 1.8334-.825 1.8334-1.8333 0-1.00834-.825-1.83334-1.8334-1.83334z"/></g></svg>