<svg fill="none" height="22" viewBox="0 0 22 22" width="22" xmlns="http://www.w3.org/2000/svg"><g stroke="#121212" stroke-miterlimit="10" stroke-width="1.5"><path d="m11.0183 2.66748c-3.03413 0-5.49996 2.46583-5.49996 5.5v2.64912c0 .5592-.23834 1.4117-.5225 1.8884l-1.05417 1.7508c-.65083 1.0817-.20167 2.2825.99 2.6858 3.95083 1.32 8.21333 1.32 12.16413 0 1.1092-.3666 1.595-1.6775.99-2.6858l-1.0541-1.7508c-.275-.4767-.5134-1.3292-.5134-1.8884v-2.64912c0-3.025-2.475-5.5-5.5-5.5z" stroke-linecap="round"/><path d="m12.7142 2.93332c-.2842-.0825-.5775-.14667-.88-.18333-.88-.11-1.7234-.04584-2.51169.18333.26583-.67833.92579-1.155 1.69579-1.155s1.43.47667 1.6959 1.155z" stroke-linecap="round" stroke-linejoin="round"/><path d="m13.7683 17.4716c0 1.5125-1.2375 2.75-2.75 2.75-.7516 0-1.44829-.3116-1.94329-.8066s-.80667-1.1917-.80667-1.9434"/></g></svg>